ffmpeg started on 2025-05-25 at 18:45:34
Report written to "D:\Convert\FFMetrics\reports\psnr_report-6.txt"
Log level: 32
Command line:
ffmpeg -hide_banner -nostdin -i "G:\\\xc0\xed\xe8\xec\xe5\\\xce\xed\xe3\xee\xe8\xed\xe3\xe8\\!_34_\xc2\xe5\xf1\xed\xe0_2024\\JamClub\\\xc1\xee\xf0\xfc\xe1\xe0 \xe2 \xef\xf0\xff\xec\xee\xec \xfd\xf4\xe8\xf0\xe5\\[JAM_CLUB]_Kenka_Dokugaku_01_[1080p][RUS][DUB]_HEVC.mkv" -i "G:\\\xc0\xed\xe8\xec\xe5\\\xce\xed\xe3\xee\xe8\xed\xe3\xe8\\!_34_\xc2\xe5\xf1\xed\xe0_2024\\JamClub\\\xc1\xee\xf0\xfc\xe1\xe0 \xe2 \xef\xf0\xff\xec\xee\xec \xfd\xf4\xe8\xf0\xe5\\[JAM_CLUB]_Kenka_Dokugaku_01_[1080p][RUS][DUB].mp4" -lavfi "[0:v]settb=AVTB,setpts=PTS-STARTPTS,format=pix_fmts=yuv420p10,fps=24000/1001,scale=1920:1080:flags=bicubic[main];[1:v]settb=AVTB,setpts=PTS-STARTPTS,format=pix_fmts=yuv420p,fps=24000/1001,scale=1920:1080:flags=bicubic[ref];[main][ref]psnr=eof_action=endall:stats_file='D\\:/Convert/FFMetrics/logs/psnr_logfile-6.txt'" -f null -
Input #0, matroska,webm, from 'G:\Аниме\Онгоинги\!_34_Весна_2024\JamClub\Борьба в прямом эфире\[JAM_CLUB]_Kenka_Dokugaku_01_[1080p][RUS][DUB]_HEVC.mkv':
  Metadata:
    COMPATIBLE_BRANDS: isomiso2avc1mp41
    MAJOR_BRAND     : isom
    MINOR_VERSION   : 512
    ENCODER         : Lavf61.7.100
  Duration: 00:23:17.36, start: -0.021000, bitrate: 1504 kb/s
  Stream #0:0: Video: hevc (Main 10), yuv420p10le(tv, bt709, progressive), 1920x1080 [SAR 1:1 DAR 16:9], 23.98 fps, 23.98 tbr, 1k tbn (default)
      Metadata:
        HANDLER_NAME    : VideoHandler
        VENDOR_ID       : [0][0][0][0]
        ENCODER         : Lavc61.19.100 libx265
        BPS             : 1304659
        DURATION        : 00:23:17.186708333
        NUMBER_OF_FRAMES: 33499
        NUMBER_OF_BYTES : 227856513
        _STATISTICS_WRITING_APP: mkvpropedit v66.0.0 ('Josie') 64-bit
        _STATISTICS_WRITING_DATE_UTC: 2025-05-25 12:36:12
        _STATISTICS_TAGS: BPS DURATION NUMBER_OF_FRAMES NUMBER_OF_BYTES
  Stream #0:1(eng): Audio: aac (LC), 48000 Hz, stereo, fltp (default)
      Metadata:
        HANDLER_NAME    : SoundHandler
        VENDOR_ID       : [0][0][0][0]
        ENCODER         : Lavc61.19.100 aac
        BPS             : 195673
        DURATION        : 00:23:17.336000000
        NUMBER_OF_FRAMES: 65501
        NUMBER_OF_BYTES : 34177685
        _STATISTICS_WRITING_APP: mkvpropedit v66.0.0 ('Josie') 64-bit
        _STATISTICS_WRITING_DATE_UTC: 2025-05-25 12:36:12
        _STATISTICS_TAGS: BPS DURATION NUMBER_OF_FRAMES NUMBER_OF_BYTES
Input #1, mov,mp4,m4a,3gp,3g2,mj2, from 'G:\Аниме\Онгоинги\!_34_Весна_2024\JamClub\Борьба в прямом эфире\[JAM_CLUB]_Kenka_Dokugaku_01_[1080p][RUS][DUB].mp4':
  Metadata:
    major_brand     : isom
    minor_version   : 512
    compatible_brands: isomiso2avc1mp41
    encoder         : Lavf58.45.100
  Duration: 00:23:17.34, start: 0.000000, bitrate: 4327 kb/s
  Stream #1:0[0x1](und): Video: h264 (High) (avc1 / 0x31637661), yuv420p(tv, bt709, progressive), 1920x1080 [SAR 1:1 DAR 16:9], 4129 kb/s, 23.98 fps, 23.98 tbr, 90k tbn (default)
      Metadata:
        handler_name    : VideoHandler
        vendor_id       : [0][0][0][0]
  Stream #1:1[0x2](eng): Audio: aac (LC) (mp4a / 0x6134706D), 48000 Hz, stereo, fltp, 191 kb/s (default)
      Metadata:
        handler_name    : SoundHandler
        vendor_id       : [0][0][0][0]
Stream mapping:
  Stream #0:0 (hevc) -> settb:default
  Stream #1:0 (h264) -> settb:default
  psnr:default -> Stream #0:0 (wrapped_avframe)
  Stream #0:1 -> #0:1 (aac (native) -> pcm_s16le (native))
Output #0, null, to 'pipe:':
  Metadata:
    COMPATIBLE_BRANDS: isomiso2avc1mp41
    MAJOR_BRAND     : isom
    MINOR_VERSION   : 512
    encoder         : Lavf61.7.100
  Stream #0:0: Video: wrapped_avframe, yuv420p10le(tv, bt709, progressive), 1920x1080 [SAR 1:1 DAR 16:9], q=2-31, 200 kb/s, 23.98 fps, 23.98 tbn
      Metadata:
        encoder         : Lavc61.19.100 wrapped_avframe
  Stream #0:1(eng): Audio: pcm_s16le, 48000 Hz, stereo, s16, 1536 kb/s (default)
      Metadata:
        HANDLER_NAME    : SoundHandler
        VENDOR_ID       : [0][0][0][0]
        _STATISTICS_TAGS: BPS DURATION NUMBER_OF_FRAMES NUMBER_OF_BYTES
        BPS             : 195673
        DURATION        : 00:23:17.336000000
        NUMBER_OF_FRAMES: 65501
        NUMBER_OF_BYTES : 34177685
        _STATISTICS_WRITING_APP: mkvpropedit v66.0.0 ('Josie') 64-bit
        _STATISTICS_WRITING_DATE_UTC: 2025-05-25 12:36:12
        encoder         : Lavc61.19.100 pcm_s16le
frame=  119 fps=0.0 q=-0.0 size=N/A time=00:00:04.96 bitrate=N/A speed=9.73x    frame=  286 fps=276 q=-0.0 size=N/A time=00:00:11.92 bitrate=N/A speed=11.5x    frame=  492 fps=318 q=-0.0 size=N/A time=00:00:20.52 bitrate=N/A speed=13.3x    frame=  718 fps=349 q=-0.0 size=N/A time=00:00:29.94 bitrate=N/A speed=14.6x    frame=  955 fps=370 q=-0.0 size=N/A time=00:00:39.83 bitrate=N/A speed=15.4x    frame= 1120 fps=362 q=-0.0 size=N/A time=00:00:46.71 bitrate=N/A speed=15.1x    frame= 1296 fps=360 q=-0.0 size=N/A time=00:00:54.05 bitrate=N/A speed=  15x    frame= 1488 fps=361 q=-0.0 size=N/A time=00:01:02.06 bitrate=N/A speed=15.1x    frame= 1689 fps=365 q=-0.0 size=N/A time=00:01:10.44 bitrate=N/A speed=15.2x    frame= 1890 fps=367 q=-0.0 size=N/A time=00:01:18.82 bitrate=N/A speed=15.3x    frame= 2097 fps=370 q=-0.0 size=N/A time=00:01:27.46 bitrate=N/A speed=15.4x    frame= 2323 fps=375 q=-0.0 size=N/A time=00:01:36.88 bitrate=N/A speed=15.6x    frame= 2541 fps=379 q=-0.0 size=N/A time=00:01:45.98 bitrate=N/A speed=15.8x    frame= 2726 fps=378 q=-0.0 size=N/A time=00:01:53.69 bitrate=N/A speed=15.8x    frame= 2948 fps=381 q=-0.0 size=N/A time=00:02:02.95 bitrate=N/A speed=15.9x    frame= 3159 fps=383 q=-0.0 size=N/A time=00:02:11.75 bitrate=N/A speed=  16x    frame= 3401 fps=388 q=-0.0 size=N/A time=00:02:21.85 bitrate=N/A speed=16.2x    frame= 3640 fps=392 q=-0.0 size=N/A time=00:02:31.81 bitrate=N/A speed=16.4x    frame= 3883 fps=397 q=-0.0 size=N/A time=00:02:41.95 bitrate=N/A speed=16.5x    frame= 4106 fps=398 q=-0.0 size=N/A time=00:02:51.25 bitrate=N/A speed=16.6x    frame= 4324 fps=399 q=-0.0 size=N/A time=00:03:00.34 bitrate=N/A speed=16.7x    frame= 4547 fps=401 q=-0.0 size=N/A time=00:03:09.64 bitrate=N/A speed=16.7x    frame= 4794 fps=405 q=-0.0 size=N/A time=00:03:19.94 bitrate=N/A speed=16.9x    frame= 5079 fps=410 q=-0.0 size=N/A time=00:03:31.83 bitrate=N/A speed=17.1x    frame= 5337 fps=414 q=-0.0 size=N/A time=00:03:42.59 bitrate=N/A speed=17.3x    frame= 5594 fps=417 q=-0.0 size=N/A time=00:03:53.31 bitrate=N/A speed=17.4x    frame= 5880 fps=422 q=-0.0 size=N/A time=00:04:05.24 bitrate=N/A speed=17.6x    frame= 6159 fps=427 q=-0.0 size=N/A time=00:04:16.88 bitrate=N/A speed=17.8x    frame= 6439 fps=431 q=-0.0 size=N/A time=00:04:28.55 bitrate=N/A speed=  18x    frame= 6723 fps=435 q=-0.0 size=N/A time=00:04:40.40 bitrate=N/A speed=18.1x    frame= 6964 fps=436 q=-0.0 size=N/A time=00:04:50.45 bitrate=N/A speed=18.2x    frame= 7131 fps=432 q=-0.0 size=N/A time=00:04:57.42 bitrate=N/A speed=  18x    frame= 7283 fps=428 q=-0.0 size=N/A time=00:05:03.76 bitrate=N/A speed=17.9x    frame= 7477 fps=427 q=-0.0 size=N/A time=00:05:11.85 bitrate=N/A speed=17.8x    frame= 7750 fps=429 q=-0.0 size=N/A time=00:05:23.23 bitrate=N/A speed=17.9x    frame= 8030 fps=433 q=-0.0 size=N/A time=00:05:34.91 bitrate=N/A speed=  18x    frame= 8314 fps=436 q=-0.0 size=N/A time=00:05:46.76 bitrate=N/A speed=18.2x    frame= 8589 fps=438 q=-0.0 size=N/A time=00:05:58.23 bitrate=N/A speed=18.3x    frame= 8847 fps=440 q=-0.0 size=N/A time=00:06:08.99 bitrate=N/A speed=18.3x    frame= 9128 fps=442 q=-0.0 size=N/A time=00:06:20.71 bitrate=N/A speed=18.5x    frame= 9404 fps=445 q=-0.0 size=N/A time=00:06:32.22 bitrate=N/A speed=18.5x    frame= 9663 fps=446 q=-0.0 size=N/A time=00:06:43.02 bitrate=N/A speed=18.6x    frame= 9922 fps=447 q=-0.0 size=N/A time=00:06:53.83 bitrate=N/A speed=18.7x    frame=10205 fps=449 q=-0.0 size=N/A time=00:07:05.63 bitrate=N/A speed=18.7x    frame=10453 fps=450 q=-0.0 size=N/A time=00:07:15.97 bitrate=N/A speed=18.8x    frame=10729 fps=452 q=-0.0 size=N/A time=00:07:27.48 bitrate=N/A speed=18.9x    frame=11002 fps=454 q=-0.0 size=N/A time=00:07:38.87 bitrate=N/A speed=18.9x    frame=11293 fps=456 q=-0.0 size=N/A time=00:07:51.01 bitrate=N/A speed=  19x    frame=11564 fps=457 q=-0.0 size=N/A time=00:08:02.31 bitrate=N/A speed=19.1x    frame=11798 fps=458 q=-0.0 size=N/A time=00:08:12.07 bitrate=N/A speed=19.1x    frame=12053 fps=458 q=-0.0 size=N/A time=00:08:22.75 bitrate=N/A speed=19.1x    frame=12322 fps=459 q=-0.0 size=N/A time=00:08:33.93 bitrate=N/A speed=19.2x    frame=12598 fps=461 q=-0.0 size=N/A time=00:08:45.44 bitrate=N/A speed=19.2x    frame=12874 fps=462 q=-0.0 size=N/A time=00:08:56.95 bitrate=N/A speed=19.3x    frame=13115 fps=462 q=-0.0 size=N/A time=00:09:07.00 bitrate=N/A speed=19.3x    frame=13334 fps=462 q=-0.0 size=N/A time=00:09:16.13 bitrate=N/A speed=19.3x    frame=13532 fps=460 q=-0.0 size=N/A time=00:09:24.39 bitrate=N/A speed=19.2x    frame=13744 fps=459 q=-0.0 size=N/A time=00:09:33.23 bitrate=N/A speed=19.2x    frame=13995 fps=460 q=-0.0 size=N/A time=00:09:43.70 bitrate=N/A speed=19.2x    frame=14240 fps=460 q=-0.0 size=N/A time=00:09:53.92 bitrate=N/A speed=19.2x    frame=14453 fps=459 q=-0.0 size=N/A time=00:10:02.81 bitrate=N/A speed=19.2x    frame=14719 fps=460 q=-0.0 size=N/A time=00:10:13.90 bitrate=N/A speed=19.2x    frame=14990 fps=461 q=-0.0 size=N/A time=00:10:25.20 bitrate=N/A speed=19.2x    frame=15205 fps=461 q=-0.0 size=N/A time=00:10:34.17 bitrate=N/A speed=19.2x    frame=15492 fps=462 q=-0.0 size=N/A time=00:10:46.14 bitrate=N/A speed=19.3x    frame=15765 fps=463 q=-0.0 size=N/A time=00:10:57.53 bitrate=N/A speed=19.3x    frame=16042 fps=464 q=-0.0 size=N/A time=00:11:09.08 bitrate=N/A speed=19.4x    frame=16285 fps=464 q=-0.0 size=N/A time=00:11:19.22 bitrate=N/A speed=19.4x    frame=16515 fps=464 q=-0.0 size=N/A time=00:11:28.81 bitrate=N/A speed=19.4x    frame=16782 fps=465 q=-0.0 size=N/A time=00:11:39.94 bitrate=N/A speed=19.4x    frame=17010 fps=464 q=-0.0 size=N/A time=00:11:49.45 bitrate=N/A speed=19.4x    frame=17207 fps=463 q=-0.0 size=N/A time=00:11:57.67 bitrate=N/A speed=19.3x    frame=17391 fps=462 q=-0.0 size=N/A time=00:12:05.34 bitrate=N/A speed=19.3x    frame=17574 fps=460 q=-0.0 size=N/A time=00:12:12.98 bitrate=N/A speed=19.2x    frame=17798 fps=460 q=-0.0 size=N/A time=00:12:22.32 bitrate=N/A speed=19.2x    frame=17994 fps=459 q=-0.0 size=N/A time=00:12:30.49 bitrate=N/A speed=19.1x    frame=18139 fps=457 q=-0.0 size=N/A time=00:12:36.54 bitrate=N/A speed=19.1x    frame=18300 fps=455 q=-0.0 size=N/A time=00:12:43.26 bitrate=N/A speed=  19x    frame=18481 fps=453 q=-0.0 size=N/A time=00:12:50.81 bitrate=N/A speed=18.9x    frame=18668 fps=452 q=-0.0 size=N/A time=00:12:58.61 bitrate=N/A speed=18.9x    frame=18955 fps=454 q=-0.0 size=N/A time=00:13:10.58 bitrate=N/A speed=18.9x    frame=19215 fps=454 q=-0.0 size=N/A time=00:13:21.42 bitrate=N/A speed=18.9x    frame=19485 fps=455 q=-0.0 size=N/A time=00:13:32.68 bitrate=N/A speed=  19x    frame=19781 fps=457 q=-0.0 size=N/A time=00:13:45.03 bitrate=N/A speed=  19x    frame=20037 fps=457 q=-0.0 size=N/A time=00:13:55.70 bitrate=N/A speed=19.1x    frame=20273 fps=457 q=-0.0 size=N/A time=00:14:05.55 bitrate=N/A speed=19.1x    frame=20515 fps=457 q=-0.0 size=N/A time=00:14:15.64 bitrate=N/A speed=19.1x    frame=20757 fps=457 q=-0.0 size=N/A time=00:14:25.73 bitrate=N/A speed=19.1x    frame=21014 fps=458 q=-0.0 size=N/A time=00:14:36.45 bitrate=N/A speed=19.1x    frame=21265 fps=458 q=-0.0 size=N/A time=00:14:46.92 bitrate=N/A speed=19.1x    frame=21421 fps=456 q=-0.0 size=N/A time=00:14:53.43 bitrate=N/A speed=  19x    frame=21637 fps=456 q=-0.0 size=N/A time=00:15:02.44 bitrate=N/A speed=  19x    frame=21876 fps=456 q=-0.0 size=N/A time=00:15:12.41 bitrate=N/A speed=  19x    frame=22131 fps=457 q=-0.0 size=N/A time=00:15:23.04 bitrate=N/A speed=  19x    frame=22400 fps=457 q=-0.0 size=N/A time=00:15:34.26 bitrate=N/A speed=19.1x    frame=22674 fps=458 q=-0.0 size=N/A time=00:15:45.69 bitrate=N/A speed=19.1x    frame=22872 fps=457 q=-0.0 size=N/A time=00:15:53.95 bitrate=N/A speed=19.1x    frame=23133 fps=458 q=-0.0 size=N/A time=00:16:04.83 bitrate=N/A speed=19.1x    frame=23395 fps=458 q=-0.0 size=N/A time=00:16:15.76 bitrate=N/A speed=19.1x    frame=23668 fps=459 q=-0.0 size=N/A time=00:16:27.15 bitrate=N/A speed=19.1x    frame=23822 fps=457 q=-0.0 size=N/A time=00:16:33.57 bitrate=N/A speed=19.1x    frame=24020 fps=457 q=-0.0 size=N/A time=00:16:41.83 bitrate=N/A speed=  19x    frame=24218 fps=456 q=-0.0 size=N/A time=00:16:50.09 bitrate=N/A speed=  19x    frame=24499 fps=457 q=-0.0 size=N/A time=00:17:01.81 bitrate=N/A speed=  19x    frame=24751 fps=457 q=-0.0 size=N/A time=00:17:12.32 bitrate=N/A speed=19.1x    frame=25031 fps=458 q=-0.0 size=N/A time=00:17:24.00 bitrate=N/A speed=19.1x    frame=25236 fps=457 q=-0.0 size=N/A time=00:17:32.55 bitrate=N/A speed=19.1x    frame=25435 fps=457 q=-0.0 size=N/A time=00:17:40.85 bitrate=N/A speed=  19x    frame=25657 fps=456 q=-0.0 size=N/A time=00:17:50.11 bitrate=N/A speed=  19x    frame=25845 fps=455 q=-0.0 size=N/A time=00:17:57.95 bitrate=N/A speed=  19x    frame=26044 fps=455 q=-0.0 size=N/A time=00:18:06.25 bitrate=N/A speed=  19x    frame=26295 fps=455 q=-0.0 size=N/A time=00:18:16.72 bitrate=N/A speed=  19x    frame=26526 fps=455 q=-0.0 size=N/A time=00:18:26.35 bitrate=N/A speed=  19x    frame=26809 fps=456 q=-0.0 size=N/A time=00:18:38.15 bitrate=N/A speed=  19x    frame=27110 fps=457 q=-0.0 size=N/A time=00:18:50.71 bitrate=N/A speed=19.1x    frame=27328 fps=456 q=-0.0 size=N/A time=00:18:59.80 bitrate=N/A speed=  19x    frame=27576 fps=457 q=-0.0 size=N/A time=00:19:10.14 bitrate=N/A speed=  19x    frame=27843 fps=457 q=-0.0 size=N/A time=00:19:21.28 bitrate=N/A speed=19.1x    frame=28080 fps=457 q=-0.0 size=N/A time=00:19:31.17 bitrate=N/A speed=19.1x    frame=28342 fps=458 q=-0.0 size=N/A time=00:19:42.09 bitrate=N/A speed=19.1x    frame=28552 fps=457 q=-0.0 size=N/A time=00:19:50.85 bitrate=N/A speed=19.1x    frame=28796 fps=457 q=-0.0 size=N/A time=00:20:01.03 bitrate=N/A speed=19.1x    frame=29073 fps=458 q=-0.0 size=N/A time=00:20:12.58 bitrate=N/A speed=19.1x    frame=29339 fps=458 q=-0.0 size=N/A time=00:20:23.68 bitrate=N/A speed=19.1x    frame=29602 fps=459 q=-0.0 size=N/A time=00:20:34.65 bitrate=N/A speed=19.1x    frame=29839 fps=459 q=-0.0 size=N/A time=00:20:44.53 bitrate=N/A speed=19.1x    frame=30027 fps=458 q=-0.0 size=N/A time=00:20:52.37 bitrate=N/A speed=19.1x    frame=30266 fps=458 q=-0.0 size=N/A time=00:21:02.34 bitrate=N/A speed=19.1x    frame=30524 fps=458 q=-0.0 size=N/A time=00:21:13.10 bitrate=N/A speed=19.1x    frame=30763 fps=459 q=-0.0 size=N/A time=00:21:23.07 bitrate=N/A speed=19.1x    frame=31002 fps=459 q=-0.0 size=N/A time=00:21:33.04 bitrate=N/A speed=19.1x    frame=31244 fps=459 q=-0.0 size=N/A time=00:21:43.13 bitrate=N/A speed=19.1x    frame=31491 fps=459 q=-0.0 size=N/A time=00:21:53.43 bitrate=N/A speed=19.1x    frame=31736 fps=459 q=-0.0 size=N/A time=00:22:03.65 bitrate=N/A speed=19.1x    frame=31977 fps=459 q=-0.0 size=N/A time=00:22:13.70 bitrate=N/A speed=19.1x    frame=32199 fps=459 q=-0.0 size=N/A time=00:22:22.96 bitrate=N/A speed=19.1x    frame=32470 fps=459 q=-0.0 size=N/A time=00:22:34.26 bitrate=N/A speed=19.2x    frame=32746 fps=460 q=-0.0 size=N/A time=00:22:45.78 bitrate=N/A speed=19.2x    frame=32985 fps=460 q=-0.0 size=N/A time=00:22:55.74 bitrate=N/A speed=19.2x    frame=33207 fps=460 q=-0.0 size=N/A time=00:23:05.00 bitrate=N/A speed=19.2x    frame=33449 fps=460 q=-0.0 size=N/A time=00:23:15.10 bitrate=N/A speed=19.2x    [Parsed_psnr_10 @ 00000215f7783b40] PSNR y:48.134783 u:51.551600 v:51.449160 average:48.995311 min:37.213551 max:inf
[out#0/null @ 00000215f72c4580] video:14394KiB audio:262004KiB subtitle:0KiB other streams:0KiB global headers:0KiB muxing overhead: unknown
frame=33499 fps=460 q=-0.0 Lsize=N/A time=00:23:17.18 bitrate=N/A speed=19.2x    
